<svg width="328" height="68" viewBox="0 0 328 68" fill="none" xmlns="http://www.w3.org/2000/svg">
<rect width="328" height="68" rx="15" fill="black"/>
<path d="M64.2513 41.12C62.1513 41.12 60.0913 40.38 59.0513 39.3L59.6313 38.16C60.6313 39.14 62.4113 39.86 64.2513 39.86C66.8713 39.86 68.0113 38.76 68.0113 37.38C68.0113 33.54 59.3913 35.9 59.3913 30.72C59.3913 28.66 60.9913 26.88 64.5513 26.88C66.1313 26.88 67.7713 27.34 68.8913 28.12L68.3913 29.3C67.1913 28.52 65.7913 28.14 64.5513 28.14C61.9913 28.14 60.8513 29.28 60.8513 30.68C60.8513 34.52 69.4713 32.2 69.4713 37.3C69.4713 39.36 67.8313 41.12 64.2513 41.12ZM77.436 39.34L77.936 40.36C77.376 40.86 76.536 41.1 75.716 41.1C73.736 41.1 72.636 39.98 72.636 38.04V31.68H70.756V30.48H72.636V28.18H74.056V30.48H77.256V31.68H74.056V37.96C74.056 39.2 74.696 39.88 75.876 39.88C76.456 39.88 77.036 39.7 77.436 39.34ZM84.201 30.4C86.921 30.4 88.461 31.76 88.461 34.48V41H87.101V39.36C86.461 40.44 85.221 41.1 83.481 41.1C81.101 41.1 79.641 39.86 79.641 38.04C79.641 36.42 80.681 35.06 83.701 35.06H87.041V34.42C87.041 32.62 86.021 31.64 84.061 31.64C82.701 31.64 81.421 32.12 80.561 32.88L79.921 31.82C80.981 30.92 82.541 30.4 84.201 30.4ZM83.701 39.98C85.301 39.98 86.481 39.22 87.041 37.84V36.12H83.741C81.701 36.12 81.041 36.92 81.041 38C81.041 39.22 82.021 39.98 83.701 39.98ZM93.6779 32.54C94.3379 31.14 95.6779 30.4 97.6179 30.4V31.78C97.4979 31.78 97.3779 31.76 97.2779 31.76C95.0779 31.76 93.7379 33.16 93.7379 35.64V41H92.3179V30.48H93.6779V32.54ZM105.678 39.34L106.178 40.36C105.618 40.86 104.778 41.1 103.958 41.1C101.978 41.1 100.878 39.98 100.878 38.04V31.68H98.9982V30.48H100.878V28.18H102.298V30.48H105.498V31.68H102.298V37.96C102.298 39.2 102.938 39.88 104.118 39.88C104.698 39.88 105.278 39.7 105.678 39.34ZM129.932 27L124.332 36.16V41H122.872V36.16L117.272 27H118.852L123.652 34.86L128.452 27H129.932ZM135.036 41.1C131.956 41.1 129.676 38.86 129.676 35.74C129.676 32.62 131.956 30.4 135.036 30.4C138.116 30.4 140.376 32.62 140.376 35.74C140.376 38.86 138.116 41.1 135.036 41.1ZM135.036 39.84C137.276 39.84 138.936 38.2 138.936 35.74C138.936 33.28 137.276 31.64 135.036 31.64C132.796 31.64 131.116 33.28 131.116 35.74C131.116 38.2 132.796 39.84 135.036 39.84ZM151.335 30.48H152.755V41H151.395V39.08C150.655 40.36 149.295 41.1 147.615 41.1C144.935 41.1 143.175 39.6 143.175 36.58V30.48H144.595V36.44C144.595 38.68 145.755 39.82 147.755 39.82C149.955 39.82 151.335 38.4 151.335 36V30.48ZM158.092 32.54C158.752 31.14 160.092 30.4 162.032 30.4V31.78C161.912 31.78 161.792 31.76 161.692 31.76C159.492 31.76 158.152 33.16 158.152 35.64V41H156.732V30.48H158.092V32.54ZM176.374 41.12C172.174 41.12 169.054 38.1 169.054 34C169.054 29.9 172.174 26.88 176.394 26.88C178.434 26.88 180.274 27.56 181.514 28.92L180.574 29.86C179.434 28.7 178.034 28.2 176.434 28.2C173.054 28.2 170.514 30.68 170.514 34C170.514 37.32 173.054 39.8 176.434 39.8C178.034 39.8 179.434 39.3 180.574 38.12L181.514 39.06C180.274 40.42 178.434 41.12 176.374 41.12ZM189.729 30.4C192.289 30.4 194.049 31.88 194.049 34.9V41H192.629V35.04C192.629 32.82 191.469 31.68 189.469 31.68C187.209 31.68 185.789 33.08 185.789 35.48V41H184.369V26.16H185.789V32.32C186.569 31.1 187.949 30.4 189.729 30.4ZM201.584 30.4C204.304 30.4 205.844 31.76 205.844 34.48V41H204.484V39.36C203.844 40.44 202.604 41.1 200.864 41.1C198.484 41.1 197.024 39.86 197.024 38.04C197.024 36.42 198.064 35.06 201.084 35.06H204.424V34.42C204.424 32.62 203.404 31.64 201.444 31.64C200.084 31.64 198.804 32.12 197.944 32.88L197.304 31.82C198.364 30.92 199.924 30.4 201.584 30.4ZM201.084 39.98C202.684 39.98 203.864 39.22 204.424 37.84V36.12H201.124C199.084 36.12 198.424 36.92 198.424 38C198.424 39.22 199.404 39.98 201.084 39.98ZM209.701 41V26.16H211.121V41H209.701ZM215.072 41V26.16H216.492V41H215.072ZM229.623 35.74C229.623 35.86 229.603 36.02 229.603 36.18H220.803C220.963 38.38 222.643 39.84 224.943 39.84C226.223 39.84 227.363 39.38 228.163 38.46L228.963 39.38C228.023 40.5 226.563 41.1 224.903 41.1C221.623 41.1 219.383 38.86 219.383 35.74C219.383 32.62 221.563 30.4 224.523 30.4C227.483 30.4 229.623 32.58 229.623 35.74ZM224.523 31.62C222.483 31.62 220.983 33.06 220.803 35.12H228.263C228.083 33.06 226.583 31.62 224.523 31.62ZM237.873 30.4C240.433 30.4 242.193 31.88 242.193 34.9V41H240.773V35.04C240.773 32.82 239.613 31.68 237.613 31.68C235.353 31.68 233.933 33.08 233.933 35.48V41H232.513V30.48H233.873V32.42C234.633 31.14 236.053 30.4 237.873 30.4ZM254.467 30.48H255.827V39.72C255.827 43.34 254.047 44.98 250.567 44.98C248.647 44.98 246.767 44.4 245.667 43.36L246.387 42.28C247.387 43.18 248.907 43.72 250.527 43.72C253.187 43.72 254.407 42.5 254.407 39.9V38.56C253.527 39.9 252.027 40.6 250.307 40.6C247.307 40.6 245.027 38.5 245.027 35.48C245.027 32.46 247.307 30.4 250.307 30.4C252.067 30.4 253.587 31.12 254.467 32.5V30.48ZM250.447 39.34C252.767 39.34 254.447 37.76 254.447 35.48C254.447 33.2 252.767 31.64 250.447 31.64C248.127 31.64 246.467 33.2 246.467 35.48C246.467 37.76 248.127 39.34 250.447 39.34ZM268.978 35.74C268.978 35.86 268.958 36.02 268.958 36.18H260.158C260.318 38.38 261.998 39.84 264.298 39.84C265.578 39.84 266.718 39.38 267.518 38.46L268.318 39.38C267.378 40.5 265.918 41.1 264.258 41.1C260.978 41.1 258.738 38.86 258.738 35.74C258.738 32.62 260.918 30.4 263.878 30.4C266.838 30.4 268.978 32.58 268.978 35.74ZM263.878 31.62C261.838 31.62 260.338 33.06 260.158 35.12H267.618C267.438 33.06 265.938 31.62 263.878 31.62Z" fill="white"/>
</svg>
