<svg width="208" height="56" viewBox="0 0 208 56" fill="none" xmlns="http://www.w3.org/2000/svg">
<rect x="0.5" y="0.5" width="207" height="55" rx="12.5" stroke="white"/>
<path d="M33.14 35.12C32.1 35.12 31.1 34.9533 30.14 34.62C29.1933 34.2733 28.46 33.8333 27.94 33.3L28.52 32.16C29.0133 32.64 29.6733 33.0467 30.5 33.38C31.34 33.7 32.22 33.86 33.14 33.86C34.02 33.86 34.7333 33.7533 35.28 33.54C35.84 33.3133 36.2467 33.0133 36.5 32.64C36.7667 32.2667 36.9 31.8533 36.9 31.4C36.9 30.8533 36.74 30.4133 36.42 30.08C36.1133 29.7467 35.7067 29.4867 35.2 29.3C34.6933 29.1 34.1333 28.9267 33.52 28.78C32.9067 28.6333 32.2933 28.48 31.68 28.32C31.0667 28.1467 30.5 27.92 29.98 27.64C29.4733 27.36 29.06 26.9933 28.74 26.54C28.4333 26.0733 28.28 25.4667 28.28 24.72C28.28 24.0267 28.46 23.3933 28.82 22.82C29.1933 22.2333 29.76 21.7667 30.52 21.42C31.28 21.06 32.2533 20.88 33.44 20.88C34.2267 20.88 35.0067 20.9933 35.78 21.22C36.5533 21.4333 37.22 21.7333 37.78 22.12L37.28 23.3C36.68 22.9 36.04 22.6067 35.36 22.42C34.6933 22.2333 34.0467 22.14 33.42 22.14C32.58 22.14 31.8867 22.2533 31.34 22.48C30.7933 22.7067 30.3867 23.0133 30.12 23.4C29.8667 23.7733 29.74 24.2 29.74 24.68C29.74 25.2267 29.8933 25.6667 30.2 26C30.52 26.3333 30.9333 26.5933 31.44 26.78C31.96 26.9667 32.5267 27.1333 33.14 27.28C33.7533 27.4267 34.36 27.5867 34.96 27.76C35.5733 27.9333 36.1333 28.16 36.64 28.44C37.16 28.7067 37.5733 29.0667 37.88 29.52C38.2 29.9733 38.36 30.5667 38.36 31.3C38.36 31.98 38.1733 32.6133 37.8 33.2C37.4267 33.7733 36.8533 34.24 36.08 34.6C35.32 34.9467 34.34 35.12 33.14 35.12ZM44.6047 35.1C43.618 35.1 42.858 34.8333 42.3247 34.3C41.7914 33.7667 41.5247 33.0133 41.5247 32.04V22.18H42.9447V31.96C42.9447 32.5733 43.098 33.0467 43.4047 33.38C43.7247 33.7133 44.178 33.88 44.7647 33.88C45.3914 33.88 45.9114 33.7 46.3247 33.34L46.8247 34.36C46.5447 34.6133 46.2047 34.8 45.8047 34.92C45.418 35.04 45.018 35.1 44.6047 35.1ZM39.6447 25.68V24.5H46.1447V25.68H39.6447ZM55.9897 35V32.68L55.9297 32.3V28.42C55.9297 27.5267 55.6764 26.84 55.1697 26.36C54.6764 25.88 53.9364 25.64 52.9497 25.64C52.2697 25.64 51.623 25.7533 51.0097 25.98C50.3964 26.2067 49.8764 26.5067 49.4497 26.88L48.8097 25.82C49.343 25.3667 49.983 25.02 50.7297 24.78C51.4764 24.5267 52.263 24.4 53.0897 24.4C54.4497 24.4 55.4964 24.74 56.2297 25.42C56.9764 26.0867 57.3497 27.1067 57.3497 28.48V35H55.9897ZM52.3697 35.1C51.583 35.1 50.8964 34.9733 50.3097 34.72C49.7364 34.4533 49.2964 34.0933 48.9897 33.64C48.683 33.1733 48.5297 32.64 48.5297 32.04C48.5297 31.4933 48.6564 31 48.9097 30.56C49.1764 30.1067 49.603 29.7467 50.1897 29.48C50.7897 29.2 51.5897 29.06 52.5897 29.06H56.2097V30.12H52.6297C51.6164 30.12 50.9097 30.3 50.5097 30.66C50.123 31.02 49.9297 31.4667 49.9297 32C49.9297 32.6 50.163 33.08 50.6297 33.44C51.0964 33.8 51.7497 33.98 52.5897 33.98C53.3897 33.98 54.0764 33.8 54.6497 33.44C55.2364 33.0667 55.663 32.5333 55.9297 31.84L56.2497 32.82C55.983 33.5133 55.5164 34.0667 54.8497 34.48C54.1964 34.8933 53.3697 35.1 52.3697 35.1ZM61.2066 35V24.5H62.5666V27.36L62.4266 26.86C62.7199 26.06 63.2132 25.4533 63.9066 25.04C64.5999 24.6133 65.4599 24.4 66.4866 24.4V25.78C66.4332 25.78 66.3799 25.78 66.3266 25.78C66.2732 25.7667 66.2199 25.76 66.1666 25.76C65.0599 25.76 64.1932 26.1 63.5666 26.78C62.9399 27.4467 62.6266 28.4 62.6266 29.64V35H61.2066ZM72.8469 35.1C71.8602 35.1 71.1002 34.8333 70.5669 34.3C70.0335 33.7667 69.7669 33.0133 69.7669 32.04V22.18H71.1869V31.96C71.1869 32.5733 71.3402 33.0467 71.6469 33.38C71.9669 33.7133 72.4202 33.88 73.0069 33.88C73.6335 33.88 74.1535 33.7 74.5669 33.34L75.0669 34.36C74.7869 34.6133 74.4469 34.8 74.0469 34.92C73.6602 35.04 73.2602 35.1 72.8469 35.1ZM67.8869 25.68V24.5H74.3869V25.68H67.8869ZM89.2663 35.12C88.2129 35.12 87.2396 34.9467 86.3463 34.6C85.4529 34.24 84.6796 33.74 84.0263 33.1C83.3729 32.46 82.8596 31.7067 82.4863 30.84C82.1263 29.9733 81.9463 29.0267 81.9463 28C81.9463 26.9733 82.1263 26.0267 82.4863 25.16C82.8596 24.2933 83.3729 23.54 84.0263 22.9C84.6929 22.26 85.4729 21.7667 86.3663 21.42C87.2596 21.06 88.2329 20.88 89.2863 20.88C90.2996 20.88 91.2529 21.0533 92.1463 21.4C93.0396 21.7333 93.7929 22.24 94.4063 22.92L93.4663 23.86C92.8929 23.2733 92.2596 22.8533 91.5663 22.6C90.8729 22.3333 90.1263 22.2 89.3263 22.2C88.4863 22.2 87.7063 22.3467 86.9863 22.64C86.2663 22.92 85.6396 23.3267 85.1063 23.86C84.5729 24.38 84.1529 24.9933 83.8462 25.7C83.5529 26.3933 83.4062 27.16 83.4062 28C83.4062 28.84 83.5529 29.6133 83.8462 30.32C84.1529 31.0133 84.5729 31.6267 85.1063 32.16C85.6396 32.68 86.2663 33.0867 86.9863 33.38C87.7063 33.66 88.4863 33.8 89.3263 33.8C90.1263 33.8 90.8729 33.6667 91.5663 33.4C92.2596 33.1333 92.8929 32.7067 93.4663 32.12L94.4063 33.06C93.7929 33.74 93.0396 34.2533 92.1463 34.6C91.2529 34.9467 90.2929 35.12 89.2663 35.12ZM102.621 24.4C103.475 24.4 104.221 24.5667 104.861 24.9C105.515 25.22 106.021 25.7133 106.381 26.38C106.755 27.0467 106.941 27.8867 106.941 28.9V35H105.521V29.04C105.521 27.9333 105.241 27.1 104.681 26.54C104.135 25.9667 103.361 25.68 102.361 25.68C101.615 25.68 100.961 25.8333 100.401 26.14C99.8546 26.4333 99.4279 26.8667 99.1213 27.44C98.8279 28 98.6813 28.68 98.6813 29.48V35H97.2613V20.16H98.6813V27.38L98.4013 26.84C98.7346 26.08 99.2679 25.4867 100.001 25.06C100.735 24.62 101.608 24.4 102.621 24.4ZM117.357 35V32.68L117.297 32.3V28.42C117.297 27.5267 117.044 26.84 116.537 26.36C116.044 25.88 115.304 25.64 114.317 25.64C113.637 25.64 112.99 25.7533 112.377 25.98C111.764 26.2067 111.244 26.5067 110.817 26.88L110.177 25.82C110.71 25.3667 111.35 25.02 112.097 24.78C112.844 24.5267 113.63 24.4 114.457 24.4C115.817 24.4 116.864 24.74 117.597 25.42C118.344 26.0867 118.717 27.1067 118.717 28.48V35H117.357ZM113.737 35.1C112.95 35.1 112.264 34.9733 111.677 34.72C111.104 34.4533 110.664 34.0933 110.357 33.64C110.05 33.1733 109.897 32.64 109.897 32.04C109.897 31.4933 110.024 31 110.277 30.56C110.544 30.1067 110.97 29.7467 111.557 29.48C112.157 29.2 112.957 29.06 113.957 29.06H117.577V30.12H113.997C112.984 30.12 112.277 30.3 111.877 30.66C111.49 31.02 111.297 31.4667 111.297 32C111.297 32.6 111.53 33.08 111.997 33.44C112.464 33.8 113.117 33.98 113.957 33.98C114.757 33.98 115.444 33.8 116.017 33.44C116.604 33.0667 117.03 32.5333 117.297 31.84L117.617 32.82C117.35 33.5133 116.884 34.0667 116.217 34.48C115.564 34.8933 114.737 35.1 113.737 35.1ZM122.574 35V20.16H123.994V35H122.574ZM127.945 35V20.16H129.365V35H127.945ZM137.776 35.1C136.683 35.1 135.723 34.8733 134.896 34.42C134.069 33.9533 133.423 33.32 132.956 32.52C132.489 31.7067 132.256 30.78 132.256 29.74C132.256 28.7 132.476 27.78 132.916 26.98C133.369 26.18 133.983 25.5533 134.756 25.1C135.543 24.6333 136.423 24.4 137.396 24.4C138.383 24.4 139.256 24.6267 140.016 25.08C140.789 25.52 141.396 26.1467 141.836 26.96C142.276 27.76 142.496 28.6867 142.496 29.74C142.496 29.8067 142.489 29.88 142.476 29.96C142.476 30.0267 142.476 30.1 142.476 30.18H133.336V29.12H141.716L141.156 29.54C141.156 28.78 140.989 28.1067 140.656 27.52C140.336 26.92 139.896 26.4533 139.336 26.12C138.776 25.7867 138.129 25.62 137.396 25.62C136.676 25.62 136.029 25.7867 135.456 26.12C134.883 26.4533 134.436 26.92 134.116 27.52C133.796 28.12 133.636 28.8067 133.636 29.58V29.8C133.636 30.6 133.809 31.3067 134.156 31.92C134.516 32.52 135.009 32.9933 135.636 33.34C136.276 33.6733 137.003 33.84 137.816 33.84C138.456 33.84 139.049 33.7267 139.596 33.5C140.156 33.2733 140.636 32.9267 141.036 32.46L141.836 33.38C141.369 33.94 140.783 34.3667 140.076 34.66C139.383 34.9533 138.616 35.1 137.776 35.1ZM150.746 24.4C151.6 24.4 152.346 24.5667 152.986 24.9C153.64 25.22 154.146 25.7133 154.506 26.38C154.88 27.0467 155.066 27.8867 155.066 28.9V35H153.646V29.04C153.646 27.9333 153.366 27.1 152.806 26.54C152.26 25.9667 151.486 25.68 150.486 25.68C149.74 25.68 149.086 25.8333 148.526 26.14C147.98 26.4333 147.553 26.8667 147.246 27.44C146.953 28 146.806 28.68 146.806 29.48V35H145.386V24.5H146.746V27.38L146.526 26.84C146.86 26.08 147.393 25.4867 148.126 25.06C148.86 24.62 149.733 24.4 150.746 24.4ZM163.382 38.98C162.422 38.98 161.502 38.84 160.622 38.56C159.742 38.28 159.029 37.88 158.482 37.36L159.202 36.28C159.695 36.72 160.302 37.0667 161.022 37.32C161.755 37.5867 162.529 37.72 163.342 37.72C164.675 37.72 165.655 37.4067 166.282 36.78C166.909 36.1667 167.222 35.2067 167.222 33.9V31.28L167.422 29.48L167.282 27.68V24.5H168.642V33.72C168.642 35.5333 168.195 36.86 167.302 37.7C166.422 38.5533 165.115 38.98 163.382 38.98ZM163.122 34.6C162.122 34.6 161.222 34.3867 160.422 33.96C159.622 33.52 158.989 32.9133 158.522 32.14C158.069 31.3667 157.842 30.48 157.842 29.48C157.842 28.48 158.069 27.6 158.522 26.84C158.989 26.0667 159.622 25.4667 160.422 25.04C161.222 24.6133 162.122 24.4 163.122 24.4C164.055 24.4 164.895 24.5933 165.642 24.98C166.389 25.3667 166.982 25.94 167.422 26.7C167.862 27.46 168.082 28.3867 168.082 29.48C168.082 30.5733 167.862 31.5 167.422 32.26C166.982 33.02 166.389 33.6 165.642 34C164.895 34.4 164.055 34.6 163.122 34.6ZM163.262 33.34C164.035 33.34 164.722 33.18 165.322 32.86C165.922 32.5267 166.395 32.0733 166.742 31.5C167.089 30.9133 167.262 30.24 167.262 29.48C167.262 28.72 167.089 28.0533 166.742 27.48C166.395 26.9067 165.922 26.46 165.322 26.14C164.722 25.8067 164.035 25.64 163.262 25.64C162.502 25.64 161.815 25.8067 161.202 26.14C160.602 26.46 160.129 26.9067 159.782 27.48C159.449 28.0533 159.282 28.72 159.282 29.48C159.282 30.24 159.449 30.9133 159.782 31.5C160.129 32.0733 160.602 32.5267 161.202 32.86C161.815 33.18 162.502 33.34 163.262 33.34ZM177.053 35.1C175.96 35.1 175 34.8733 174.173 34.42C173.347 33.9533 172.7 33.32 172.233 32.52C171.767 31.7067 171.533 30.78 171.533 29.74C171.533 28.7 171.753 27.78 172.193 26.98C172.647 26.18 173.26 25.5533 174.033 25.1C174.82 24.6333 175.7 24.4 176.673 24.4C177.66 24.4 178.533 24.6267 179.293 25.08C180.067 25.52 180.673 26.1467 181.113 26.96C181.553 27.76 181.773 28.6867 181.773 29.74C181.773 29.8067 181.767 29.88 181.753 29.96C181.753 30.0267 181.753 30.1 181.753 30.18H172.613V29.12H180.993L180.433 29.54C180.433 28.78 180.267 28.1067 179.933 27.52C179.613 26.92 179.173 26.4533 178.613 26.12C178.053 25.7867 177.407 25.62 176.673 25.62C175.953 25.62 175.307 25.7867 174.733 26.12C174.16 26.4533 173.713 26.92 173.393 27.52C173.073 28.12 172.913 28.8067 172.913 29.58V29.8C172.913 30.6 173.087 31.3067 173.433 31.92C173.793 32.52 174.287 32.9933 174.913 33.34C175.553 33.6733 176.28 33.84 177.093 33.84C177.733 33.84 178.327 33.7267 178.873 33.5C179.433 33.2733 179.913 32.9267 180.313 32.46L181.113 33.38C180.647 33.94 180.06 34.3667 179.353 34.66C178.66 34.9533 177.893 35.1 177.053 35.1Z" fill="white"/>
</svg>
